<svg id="Layer_1" data-name="Layer 1" xmlns="http://www.w3.org/2000/svg" viewBox="0 0 376.99 413.27"><defs><style>.cls-1,.cls-3{fill:#ad9f4e;}.cls-1,.cls-2{fill-rule:evenodd;}.cls-2,.cls-4{fill:#486837;}</style></defs><path class="cls-1" d="M215.33,138c-1.33-1.72-3.94-3.58-4.19-3.95l1.22-3.46c.18-.47,1.34-3,1.34-3.34s-.07-.21-.11-.67c-1.41-.33-2.18.27-2.92,1.88-.4.9-.93,1.79-1.31,2.7-.21.52-.39.87-.64,1.37a11.8,11.8,0,0,0-.58,1.42,63.25,63.25,0,0,0-3.61,12.35,16.85,16.85,0,0,0-.53,3.48c0,2.18,0,4.27,2.07,5.52a4.91,4.91,0,0,0,3,.5,9.2,9.2,0,0,0,6.6-3.43,6.37,6.37,0,0,0,1.55-3.47C218.07,144.38,218.2,141.7,215.33,138Zm.28,8.23-.68.76c-1.64,1.26-3.89,2.79-6.14,2.79-1.24,0-2.06-.07-2.3-1.72a10.4,10.4,0,0,1,.31-2.95,16.64,16.64,0,0,1,1.26-3.65,6.94,6.94,0,0,0,.51-1.16C209.25,140.49,216.3,144.66,215.61,146.24Z"/><path class="cls-1" d="M256.65,196.87c-1.83,0-2.72,1.18-3.71,2.73a13.64,13.64,0,0,0-1.7,4.27c-.58,2.34-1.23,4.83-1.71,7.26-.07.36-.14.83-.21,1.28a3.79,3.79,0,0,1-.12.62c-.11.33-.17.26-.2.64h-.19c-.68-2.93-1.14-6.33-2.73-8.94a23.54,23.54,0,0,0-1.33-2.21c-.12-.16-.2-.3-.31-.43a9.17,9.17,0,0,0-2.32-2.08c-.62-.34-2.48-1.25-3.16-.38s-2.47,3.59-2.47,4.62c0,.86,2.66,3.45,3.92,3.45,1.79,0,.66-.74,2.05-.74.57,0,1.65,2.34,1.94,2.92a47.53,47.53,0,0,1,3.14,9s-.09,3.41,1.44,1.14c1-1.42,1.64-4.33,2-6,.17-.88.35-1.87.52-2.73a34.25,34.25,0,0,1,2.21-7.52c1-1.78,2-2.09,3.54-.52.58.61.86,1.34,1.56,1.34s1.4-2.51,1.4-3.55S258.2,196.87,256.65,196.87Z"/><path class="cls-1" d="M264,228.23c-3.75,1.87-7.82,4.19-11.58,6.06l-8.13,4.39c-.61.35-1,.47-1.27,1.23a17.49,17.49,0,0,0-.39,4.72l26.41-13.86,8.49-4.16c.23-1.77.43-3.6.61-5.37Z"/><path class="cls-1" d="M170.65,125.94c-.3-.17-.52-.32-.85-.5,0-.32,2.09-6.49.58-8.85-2.07-3.22-6.33.69-7.81,2.64A7,7,0,0,0,161.1,124c.17,1.74,1.84,3.12,3.21,4,.21.13.3.21.52.34.38.22.67.36,1,.56a11.16,11.16,0,0,1-1,1.43c-.36.48-.67.88-1.06,1.32-.23.26-.31.39-.56.64a7.83,7.83,0,0,0-.55.64l-10.05,9.19c-1,.79-6.09,4.85-7,5.1l1.82-2c.13-.17.24-.23.37-.39.27-.32.45-.58.73-.9s.43-.56.68-.85a9.27,9.27,0,0,0,.7-.92c2.31-3.19,4.65-6.9,4.65-11a7.1,7.1,0,0,0-.44-3.06c-.92-2.2-2.6-3-5-3a3.87,3.87,0,0,0-1.67.29A10.74,10.74,0,0,0,143.1,129a7.21,7.21,0,0,0-.67,8c1.16,1.94,1.82,2,2.85,3.29,1.57,2,1.5,2.27.38,3.64-.33.42-.58.78-.93,1.19l-2.89,3.41c-.18.2-.34.32-.51.53a4.61,4.61,0,0,1-.51.58,4.11,4.11,0,0,0-.48.55c-.18.22-.32.35-.51.6-.72.9-.86,1-.69,1.77,1.79,0,3-1,4.62-1.76,2.39-1.19,3.86-2.12,6.09-3.45l3.8-2.59c.33-.23.6-.49.9-.72s.59-.44.91-.7l5.07-4.47c.16-.18.18-.24.34-.43l2-2a52.31,52.31,0,0,0,3.53-4.57c.24-.35.42-.59.66-1s.43-.63.64-1a10.63,10.63,0,0,1,2.28,1.56c.24.23.53.4.62.75.52-.14,2.22-3.38,2.22-4.09C172.78,127.2,171.37,126.37,170.65,125.94Zm-26.92,6.65c0-1,.27-1.45,1.35-2.31a4.06,4.06,0,0,1,3.17-.93,4.87,4.87,0,0,1,2.7.88c2.87,2.44.13,6.79-1.6,9.09l-1.49,1.91c-.27.34-.59.66-.8,1l-.11-.07.23-.58a5.29,5.29,0,0,0-.12-4.29C146.37,135.73,143.73,133.81,143.73,132.59Zm24.11-8.17c-.75-.4-4.85-2.24-3.52-3.61a3.6,3.6,0,0,1,1.22-.74C168.56,118.59,168.4,123.24,167.84,124.42Z"/><path class="cls-2" d="M174.16,90.11a12.46,12.46,0,0,0,1.84,1c.57.29,1.68.54,2,1-.47.12-.17,0-.55.32l-3.67,3.25a3.7,3.7,0,0,0-1.26,2.63,10.06,10.06,0,0,0-.29,3.31c.75-.17,6.13-4,7.12-4.69L190,89.89c1.21-.8,2.38-1.54,3.57-2.34,1.59-1,2-1.07,2.83-3.08.38-1,1.28-3.51.78-4.56-1.54.13-5,2.55-6.46,3.49-1.67,1.07-4.77,3.22-6.83,2.89s-5.83-2.1-6.23-3.74c-.27-1.14,1.16-2.24,1.93-2.78,1.84-1.3,4.47-2.67,6.3-.39.55.68.6,1.34,1.34,1.83.59-.39.55-.53.86-1.15.95-1.86,2.42-5.35,1.13-7.48-1.06-1.76-1.72-1.9-4-1.9-2.66,0-7.06,4.21-8.54,5.89a30.65,30.65,0,0,0-3.14,4.06,10.35,10.35,0,0,0-1.73,5.63C171.82,88.09,172.8,89.14,174.16,90.11Z"/><path class="cls-2" d="M202.33,184.72l2.79,2c.5.34,1,.69,1.44,1,1.75,1.33,1.63,1.33,2.92-.82.41-.69.7-1.36,1.12-2.06a32,32,0,0,0,2.06-4.4,25.16,25.16,0,0,1,2.85,1.74c1.27.8,7.88,5.66,8.19,5.66.81,0,1.23-1,1.92-2.2,1.31-2.19,3.72-6.05,3.72-8.6,0-.84-10.33-8-11.51-8-.63,0-1.17,1.27-1.41,1.76l-2.06,4.28a18.29,18.29,0,0,0-1,2.18c-.6,0-.83-.55-1.24-.88l-3.88-2.81a53.83,53.83,0,0,0-5.45-3.48c-1.29-.64-1.4,0-2.19,1.57l-1.49,3c-.52,1-.94,2-1.45,3-.71,1.43-1.21,2-1.21,3.25C196.84,181.05,201.68,184.26,202.33,184.72Z"/><path class="cls-2" d="M140.17,186.74c.5.34,1,.69,1.43,1,1.75,1.33,1.63,1.33,2.93-.82.41-.69.69-1.36,1.11-2.06a32.1,32.1,0,0,0,2.07-4.4,26,26,0,0,1,2.84,1.74c1.27.8,7.88,5.66,8.2,5.66.8,0,1.23-1,1.91-2.2,1.32-2.19,3.72-6.05,3.72-8.6,0-.84-10.33-8-11.5-8-.64,0-1.17,1.27-1.42,1.76l-2.06,4.28a20,20,0,0,0-1,2.18c-.6,0-.83-.55-1.24-.88l-3.88-2.81a53.83,53.83,0,0,0-5.45-3.48c-1.29-.64-1.39,0-2.19,1.57l-1.49,3c-.52,1-.93,2-1.45,3-.71,1.43-1.21,2-1.21,3.25.39.09,5.22,3.3,5.87,3.76Z"/><path class="cls-2" d="M191.17,279.94l-7.62,3.54h0c.25,18,.35,34,.2,45.81-.17,13-.49,28.71-.49,29,5.94-11.32,7.57-25.72,8.21-35.71.3-4.62.31-8.29.28-10.29C191.62,303.81,191.42,292.65,191.17,279.94Z"/><path class="cls-2" d="M184.09,104.49a2.65,2.65,0,0,0-1-1.4c-1.41.82-5.2,9.8-5.25,11,0,.9.67,2,.86,2.83,1.05,4.52.83,6.78,1.07,10,.85,28.7,2.4,82,3.32,129.3l7.53-3.31c-1-45.08-2.31-98.32-3.5-125.18,1,.11,3.17,3.06,5.5,4.48C194.84,132.27,185.81,108.36,184.09,104.49Z"/><path class="cls-2" d="M270.3,263.86a33.37,33.37,0,0,0-3.49-9.67,16.1,16.1,0,0,0-4.18-4.89,8.44,8.44,0,0,0-5.26-1.52,10.18,10.18,0,0,0-6.19,2.49A25,25,0,0,0,246,256l-1.63,2.53a31.76,31.76,0,0,0-1.62,3.32c-.89,2-.4.51-1.44,1.91-1.23,1.64-3.33,9.91-4.64,13a15.14,15.14,0,0,1-3.3,5l-1.78,1.64a30.84,30.84,0,0,1-11.85,5.88l-.47.11c-.55.12-1.58.35-2.93.61-14.22,2-14-14.08-13.15-23.21,3.47-1.53,6.85-3.22,10.32-4.77l2.94-1.42,1.75-.84,8.55-4.74c2.21-1.51,1.57-1.32,3-2.76a11.07,11.07,0,0,0,1.21-1.54,26.59,26.59,0,0,0,3.75-7.61c2.08-6.54,1.24-15.74-.78-22a33.77,33.77,0,0,0-4.71-9.34c-.27-.38-.47-.62-.76-1a29.83,29.83,0,0,0-8.21-7.66,16.18,16.18,0,0,0-9.32-2.3,8.56,8.56,0,0,0-4.61,2,19.12,19.12,0,0,0-3.18,3.24c-3.25,4.22-6,9.73-5.86,15.23a17.3,17.3,0,0,0,.68,4.43,9.67,9.67,0,0,0,1.08,2.36,10.18,10.18,0,0,0,3.4,3.32c.37.2.71.33,1.11.54,3.05,1.67,11.8.29,15.9.71a23.69,23.69,0,0,1,6.71,1.73c2.36.91,5.86,3,5.92,5.76,0,1.5-7.46,4.95-8.9,5.71-3.2,1.65-6.72,3.16-10,4.55-.46.19-.89.39-1.32.59s-.81.33-1.25.54l-20.26,8.91c-3.74,1.71-7.48,3.38-11.11,5.26l-3.62,1.87a70.16,70.16,0,0,0-8.94,5.55,68.6,68.6,0,0,0-9.14,7.93l-1.31,1.46c-2.09,2.67-4.4,5.15-6.47,7.84a48.08,48.08,0,0,1-7.83,8.3c-.68.55-1.32,1-2.06,1.51a21.64,21.64,0,0,1-3.49,2c-.5.22-.74.38-1.24.56a18.06,18.06,0,0,1-4.39,1.15c-.69,0-1.08.14-1.67.16a10.32,10.32,0,0,1-4.56-.81,9.31,9.31,0,0,1-4.47-4.46,18.43,18.43,0,0,1-1.26-9.18,48.94,48.94,0,0,1,2.55-11.49l2.17-6.38.51-1.47c.33-.92.6-1.78.89-2.69.21-.66,3.53-7.87,5.44-12.1A31.14,31.14,0,0,0,130,261c.05.69.07,1.28.11,1.86l.59,3.61c.08.23.17.45.26.69a4.15,4.15,0,0,0,.63,1.4,7,7,0,0,0,3.13,3.05c4.1,1.86,9.43-.05,13.1-1.75a42.12,42.12,0,0,0,7-4,31.46,31.46,0,0,0,2.69-2,19.08,19.08,0,0,0,5.78-8.18c.28-.8.54-1.63.76-2.38a25.34,25.34,0,0,0,.86-10,24.09,24.09,0,0,0-.94-5.3,24.43,24.43,0,0,0-2.67-5.78c-.26-.46-.53-.81-.82-1.23s-.54-.8-.88-1.27c-.68-.95-4.65-6.14-5.87-6.89l8.4-11.81c1.14-1.78,2.35-3.48,3.41-5.32,2.25-3.9,4.6-8,4.6-12.69a18.9,18.9,0,0,0-.16-3.48,6.07,6.07,0,0,1-.19-.82c-.59,0-.6.2-.89.62-.47.69-2.54,5.06-3.2,6.28a68,68,0,0,1-4.29,6.71l-6.45,9.33c-1.56,2.16-3,4.33-4.71,6.41a3.17,3.17,0,0,0-.68.92,8.81,8.81,0,0,1-1.93-1.2,55.49,55.49,0,0,1-9-8.19c-.64-.7-2-1.88-2.06-2.72,1.66-.74,5.43.12,7-.66-.1-1.15-6.92-5.15-8.14-5.9s-7.91-5-9.11-5-2.26,8.24-2.26,9.57c0,1.82,0,2.57,1.24,4a21.09,21.09,0,0,0,1.94,1.84c.25.23.42.37.66.6a53.27,53.27,0,0,1,4.06,4.94c.43.51.75,1,1.16,1.46l7.15,8.13c.67.74,2,1.77,2.58,2.56-1,1.68-2.17,3.3-3.23,4.93-.56.86-1,1.63-1.57,2.51l-1.54,2.54a52.82,52.82,0,0,0-5,11.16l-6.2,11.32c-.3.54-.53,1-.83,1.61l-2.13,4.68-1.14,2.52a74.8,74.8,0,0,0-5.06,15.76,39,39,0,0,0-.76,9.2A22,22,0,0,0,118.31,305c.32.56.7,1.06,1,1.6a18,18,0,0,0,8.9,7,15.53,15.53,0,0,0,8.34.09l2.16-.77a21.3,21.3,0,0,0,4.51-2.74,41,41,0,0,0,4.49-4.15l6-6.9c.73-.73,1.29-1.55,2-2.28.26-.26.47-.46.71-.72l2-2.23c.62-.79,5.07-5.26,5.68-5.81L168,284.7c.32-.26.44-.4.79-.65.57-.44,1-.75,1.61-1.17a89.39,89.39,0,0,1,9.28-5.24c3.21-1.66,6.53-3.09,9.79-4.67l3-1.38c1.24-.55,2.44-1.11,3.64-1.66s2.26-1,3.4-1.54l.13-.05c-.2,6.21-.33,16.38,2.31,24.18a15.55,15.55,0,0,0,2,4.81,12.5,12.5,0,0,0,1.9,2.44c.25.23.51.41.78.62l.12.08c2.94,2.64,7,3.78,12.76,2.37h0a19.86,19.86,0,0,0,7.41-3.23,36,36,0,0,0,4-3.51c.25-.26.39-.51.64-.77a7.77,7.77,0,0,0,.71-.81l2.56-3.38,2.62-4.59a60.11,60.11,0,0,0,3.08-8.25c.13-.45.2-.7.35-1.09.85.43,1.7.88,2.55,1.36s1.76.86,2.69,1.31l4.14,1.71,4.48,1.26a32,32,0,0,0,11.68.56c3.06-.37,4.19-7.5,4.44-10C271.2,269.84,270.73,267.43,270.3,263.86Zm-53.8-43.68c-.57,0-.62-.1-1.23-.09a6.47,6.47,0,0,1-1.17,0c-.72-.09-1.68,0-2.34-.06a10.65,10.65,0,0,1-4.06-.87,3.45,3.45,0,0,1-1.44-1.09,3.16,3.16,0,0,1-.6-1.85,2.29,2.29,0,0,1,.43-1.3,2.37,2.37,0,0,1,.91-.76c2.09-1.15,5.73-.63,7.67.34l2.07,1.23a19.54,19.54,0,0,1,4.47,4.69C219.64,220.42,218.09,220.18,216.5,220.18Zm-76.62,22.54a85.32,85.32,0,0,1,6.63-9.15c.21-.24.34-.32.57-.59s.18-.29.52-.5a72,72,0,0,1,6.15,5.43c.2.22.2.26.43.49s.5.57.83.88a47.18,47.18,0,0,1,4,4.9c.35.55,1.94,2.73,1.94,3.27,0,1.69-4.55,4.83-6,5.86a24,24,0,0,1-2.36,1.45,38.08,38.08,0,0,1-5.25,2.52,22.89,22.89,0,0,1-6.22,1.61c-1.88,0-3.83.08-5.43-.81s-1.71-2-1.71-3.37C133.92,252.17,138.58,244.72,139.88,242.72Zm123,27.17a.73.73,0,0,1-.56.64c-2,.25-6.67-1.06-8.47-1.67l-6.91-3a2.52,2.52,0,0,1,.6-1.77c1.37-1.88,3.9-2.51,6.19-2.79,3.34-.41,6.84,3,8.4,5.76a6.47,6.47,0,0,1,.66,1.91A2.07,2.07,0,0,1,262.9,269.89Z"/><path class="cls-1" d="M235.44,174.65c0,2.34-.22,6.2,2.23,7.83a5.33,5.33,0,0,0,5.16.28c3-1.88,4.94-7,4.94-10.1-1,.54-2.05,3-3.61,4a3.26,3.26,0,0,1-3.9.19c-4.88-3.41,2.31-18.32,3.34-22-1.31.29-5.16,8.31-5.39,8.79A29.81,29.81,0,0,0,235.44,174.65Z"/><path class="cls-1" d="M163.15,159.88c0,2.34-.22,6.2,2.23,7.82a5.31,5.31,0,0,0,5.16.28c3-1.88,4.94-7,4.94-10.09-1,.53-2,3-3.61,4a3.23,3.23,0,0,1-3.9.19c-4.88-3.41,2.31-18.32,3.34-22-1.32.29-5.17,8.3-5.39,8.78A29.92,29.92,0,0,0,163.15,159.88Z"/><path class="cls-1" d="M177.62,216.3c0-2.34.22-6.2-2.23-7.83a5.31,5.31,0,0,0-5.16-.28c-3,1.88-4.94,7-4.94,10.09,1-.53,2.05-3,3.61-4a3.24,3.24,0,0,1,3.9-.19c4.88,3.41-2.31,18.32-3.34,22,1.31-.3,5.16-8.31,5.39-8.79A29.91,29.91,0,0,0,177.62,216.3Z"/><path class="cls-1" d="M106.33,240.9c0,2.87-.27,7.61,2.74,9.6a6.53,6.53,0,0,0,6.33.35c3.71-2.31,6-8.63,6-12.38-1.19.65-2.51,3.69-4.43,4.95-1.49,1-3.14,1.37-4.77.23-6-4.19,2.83-22.47,4.09-27-1.61.36-6.33,10.19-6.61,10.78C108.19,230.69,106.33,236.54,106.33,240.9Z"/><path class="cls-1" d="M155.71,323.68c0,3-.28,7.86,2.83,9.92a6.73,6.73,0,0,0,6.54.36c3.84-2.39,6.26-8.92,6.26-12.8-1.23.68-2.6,3.81-4.58,5.12-1.54,1-3.25,1.42-4.94.24-6.19-4.33,2.93-23.23,4.24-27.89-1.67.37-6.55,10.54-6.84,11.15C157.63,313.12,155.71,319.17,155.71,323.68Z"/><path class="cls-1" d="M257.75,300.48c-1.66-4.1-5-6.56-8.43-2.53a16.69,16.69,0,0,0-1.9,3.15c-1.35-.72-1.63.06-3.1,2.74-.6,1.11-1.27,2.14-1.81,3.24a15.31,15.31,0,0,1-.91,1.75,21.66,21.66,0,0,1-3.69,3.89A68.52,68.52,0,0,1,232,317c-.57.39-1.06.65-1.65,1-4.65,2.82-6.89,3.64-11.8,6-.36.18-.57.23-.93.4L215,325.62c-3.32,1.37-7,3.19-10.6,4.69-1.23.51-5.83,2.29-6.88,3.2,3.63,0,11.78-2.3,15.64-3.21,1.26-.3,2.6-.59,3.88-.91.64-.15,1.43-.22,2-.36,2.81-.65,8.21-3.88,11-5.47l4.91-3.33c.27-.2.38-.34.64-.55,4.46-3.61,6-5.45,8.47-10.26a18.41,18.41,0,0,0,1.25-3.4c.71.18,1.31,1.19,1.91,1.67,2.12,1.65,4.89,3.77,7.78,3.77,1.26,0,2-1.69,2.39-2.65C258.35,306.38,258.78,303,257.75,300.48Zm-5.52,4.45a11.34,11.34,0,0,1-2.68-2l.47-.59a2.48,2.48,0,0,1,2.18-.87c1.56,0,3.59,2.62,3.59,4.52C255.79,307.18,252.76,305.25,252.23,304.93Z"/><path class="cls-3" d="M71.34,361.33l-2.59,2.89-8.37-7.49a14.64,14.64,0,0,1-3.26-3.81,4.77,4.77,0,0,1-.38-3.61,11.82,11.82,0,0,1,2.78-4.42,11.44,11.44,0,0,1,3.89-3.11,4.65,4.65,0,0,1,3.59,0,15.62,15.62,0,0,1,4.32,3c.89.79,1.92,1.78,3.1,2.94s2,2,2.41,2.55l-8,8.9ZM61.22,350.07a2.53,2.53,0,0,0,.2,1.91,7.92,7.92,0,0,0,1.71,2l2.56,2.29,5.55-6.19c-.73-.79-1.52-1.57-2.39-2.35a8.29,8.29,0,0,0-2.26-1.55,2.45,2.45,0,0,0-1.88,0,5.6,5.6,0,0,0-2,1.59A6.36,6.36,0,0,0,61.22,350.07ZM73,337.33l2.45,2.19-2.66,3-2.44-2.19Zm3.61,3.23L79,342.75l-2.65,3-2.44-2.18Z"/><path class="cls-3" d="M70.64,368.62l2.64,1.94-2.35,3.21-2.64-1.94ZM83.33,370,81,373.08l-11.12-8.15,2.3-3.13L76,364.6l7.12-9.7,3.44,2.52-7.12,9.71Zm-8.79,1.53,2.65,1.94-2.36,3.21-2.64-1.93Z"/><path class="cls-3" d="M104.34,382.55l-2,3.36-1.51-.88a1.68,1.68,0,0,1-.69-.85,2.21,2.21,0,0,1-.11-1.2l-.69,1.18-17.3-10.09,2-3.35,4.29,2.5A21.2,21.2,0,0,1,90,369.5a22.53,22.53,0,0,1,2.19-3.07,30.34,30.34,0,0,1,2.44-2.59,10.49,10.49,0,0,1,2.57.65,20.69,20.69,0,0,1,3.41,1.61,10.8,10.8,0,0,1,3.87,3.37,4.85,4.85,0,0,1,.7,3.54,14,14,0,0,1-1.77,4.27L102,379.62a2.08,2.08,0,0,0,.1,1.22,1.63,1.63,0,0,0,.69.83Zm-11.78-9c-.29.7-.51,1.28-.66,1.73l5.75,3.36,2.1-3.61a5.06,5.06,0,0,0,.9-3.27c-.15-.9-.94-1.77-2.37-2.6a11.68,11.68,0,0,0-2.22-1,22.45,22.45,0,0,0-2.5,3.41A16.66,16.66,0,0,0,92.56,373.57Z"/><path class="cls-3" d="M126.33,379.36l-6.12,14.21-16.29-7,1.54-3.57,3.13,1.35a16.62,16.62,0,0,1,1.24-4.25,9.51,9.51,0,0,1,2.64-3.82,5.08,5.08,0,0,1,3.46-1.08,14,14,0,0,1,4.75,1.29,40.6,40.6,0,0,1,4.21,2.06Zm-13.47,5a16.94,16.94,0,0,0-.24,1.68l5.21,2.24,3.21-7.45q-1.25-.64-2-1a6.43,6.43,0,0,0-2.5-.67A2.19,2.19,0,0,0,115,380a9.42,9.42,0,0,0-1.46,2.52A10,10,0,0,0,112.86,384.39ZM119,368.15l3,1.3-1.58,3.65-3-1.29Zm4.44,1.92,3,1.29L124.88,375l-3-1.3Z"/><path class="cls-3" d="M121.59,402.22l1.21-3.63,1,.41a1.91,1.91,0,0,0,1.92-.32,4.73,4.73,0,0,0,1.36-2.25l5.2-15.62,4,1.35-5,14.92a11.28,11.28,0,0,1-3.14,5.23,4.36,4.36,0,0,1-4.46.76C123.49,403,122.77,402.7,121.59,402.22Z"/><path class="cls-3" d="M162.92,400.61l-.74,3.81-11-2.14a14.7,14.7,0,0,1-4.74-1.6,4.74,4.74,0,0,1-2.18-2.9,11.91,11.91,0,0,1,.12-5.22,11.6,11.6,0,0,1,1.75-4.67,4.6,4.6,0,0,1,3.08-1.83,15.4,15.4,0,0,1,5.22.31c1.17.23,2.56.54,4.17.94s2.73.71,3.38.95L159.67,400Zm-14.46-4.48a2.47,2.47,0,0,0,1.15,1.54,7.81,7.81,0,0,0,2.49.84l3.38.66,1.58-8.16c-1-.31-2.11-.57-3.25-.8a8.28,8.28,0,0,0-2.74-.17,2.53,2.53,0,0,0-1.63.93,5.81,5.81,0,0,0-.91,2.4A6.35,6.35,0,0,0,148.46,396.13Zm3.57-17,3.22.62-.76,3.91-3.22-.63Zm4.75.92,3.22.62-.76,3.91L156,384Z"/><path class="cls-3" d="M177.62,401.85l-.36,3.87-13.73-1.29.37-3.86,4.72.44,1.12-12,4.25.4-1.12,12Zm-11.57,5.38,3.27.3-.37,4-3.27-.31Zm4.82.45,3.27.31-.37,4-3.27-.31Z"/><path class="cls-3" d="M187.6,390,187.21,406l-9-.22.09-3.88L183,402l.29-12Zm-3.88-7.19,3.92.09-.1,4.14-3.92-.09Z"/><path class="cls-3" d="M195.34,384.06c-.46-.14-.89-.28-1.27-.42a7.41,7.41,0,0,0-1.77-.61,1.29,1.29,0,0,0-.72.39c-.29.26-.47.41-.53.45l-.46.46-.82-2.39a6,6,0,0,1,1.21-1.06,2.6,2.6,0,0,1,1.32-.46,7.37,7.37,0,0,1,2.35.65,8.31,8.31,0,0,0,1.68.58c.21,0,.6-.27,1.18-.8l.43-.46.85,2.42a3.49,3.49,0,0,1-2.38,1.45A3.56,3.56,0,0,1,195.34,384.06Zm-3.22,2.29,4.26-.14.66,19.53-4.26.15Z"/><path class="cls-3" d="M214.91,404.25l-5.23.52a11,11,0,0,1-.76,5.93,4.41,4.41,0,0,1-3.74,2.46c-.27,0-1.05.06-2.32.11l-.39-3.81,1.09,0a1.91,1.91,0,0,0,1.62-1.08,4.79,4.79,0,0,0,.31-2.6l-1.64-16.38,4.24-.43,1.2,12,5.23-.53Z"/><path class="cls-3" d="M230.61,385.57l3,15.18-17.4,3.43-.75-3.81,3.35-.66a15.89,15.89,0,0,1-1.38-4.21,9.45,9.45,0,0,1,0-4.64,5.07,5.07,0,0,1,2.24-2.84,14,14,0,0,1,4.65-1.63,43.54,43.54,0,0,1,4.63-.69Zm-12.39-5.09,3.22-.63.77,3.9-3.22.64Zm4.13,16.86a15.34,15.34,0,0,0,.76,1.52l5.56-1.09-1.57-8c-.93.12-1.65.23-2.18.33a6.55,6.55,0,0,0-2.44.87,2.16,2.16,0,0,0-.89,1.54,9.23,9.23,0,0,0,.23,2.91A9.45,9.45,0,0,0,222.35,397.34Zm.62-17.79,3.22-.64.77,3.91-3.22.63Z"/><path class="cls-3" d="M262.43,387.23l1.33,3.65-10.57,3.83a14.6,14.6,0,0,1-4.89,1.07,4.7,4.7,0,0,1-3.36-1.37,11.86,11.86,0,0,1-2.58-4.53,11.48,11.48,0,0,1-.9-4.91,4.66,4.66,0,0,1,1.69-3.16,15.67,15.67,0,0,1,4.65-2.41c1.11-.41,2.47-.85,4-1.34s2.72-.79,3.39-.92l4.08,11.22Zm-20.37-12.79,3.09-1.12,1.36,3.74-3.09,1.12Zm5.67,16.38a2.44,2.44,0,0,0,1.77.73,7.81,7.81,0,0,0,2.58-.56l3.23-1.18L252.47,382c-1,.27-2.1.6-3.2,1a8.27,8.27,0,0,0-2.44,1.25,2.5,2.5,0,0,0-.91,1.64,5.69,5.69,0,0,0,.45,2.53A6.26,6.26,0,0,0,247.73,390.82Zm-1.12-18,3.09-1.12,1.35,3.74L248,376.52Z"/><path class="cls-3" d="M288,374.08l1.81,3.44-24.25,12.79-1.81-3.44,3.72-2-5.62-10.64,3.78-2,2.37,4.5A30.65,30.65,0,0,1,269,373a9.21,9.21,0,0,1,1.56-2.88,8.72,8.72,0,0,1,2.85-2.29q3.56-1.87,6.18-.47a10,10,0,0,1,4.17,4.33l1.92,3.63Zm-16.61,1.58a17.86,17.86,0,0,0-.83,6l.68,1.29,10.62-5.6-1.53-2.9a6.3,6.3,0,0,0-2.66-2.76,3.51,3.51,0,0,0-3.37.07A6.31,6.31,0,0,0,271.4,375.66Z"/><path class="cls-3" d="M282,354.61l3.22-2.21,2.35,3.41L284.32,358Zm18.17,10.74,2.2,3.2L291,376.35l-2.19-3.2,3.91-2.69-6.81-9.92,3.52-2.41,6.8,9.92Z"/><path class="cls-3" d="M306.73,345.25a4.86,4.86,0,0,1,3.57.53,14,14,0,0,1,3.43,3.11l5.13,6.08-15.31,12.91-2.5-3,3.79-3.2a21.15,21.15,0,0,1-2.94-2.81,21.76,21.76,0,0,1-2.16-3.09,32.35,32.35,0,0,1-1.63-3.17,11.49,11.49,0,0,1,1.48-2.2,19.77,19.77,0,0,1,2.67-2.67A10.74,10.74,0,0,1,306.73,345.25Zm-.13,12.59q.84.77,1.41,1.2l5.09-4.29-2.69-3.19a5.11,5.11,0,0,0-2.79-1.94c-.89-.16-2,.29-3.24,1.36a11.75,11.75,0,0,0-1.69,1.76,24,24,0,0,0,2.37,3.5A19.21,19.21,0,0,0,306.6,357.84Z"/><path class="cls-3" d="M118,51.08l-9.73,4.37q-9.84,4.42-14.9-5.66-2.73-6.07,1.53-12.1l3.71,3q-2.34,3.87-.94,7,2.73,6.08,8.35,3.55l10-4.5a3.75,3.75,0,0,0,1.89-5q-1.28-2.84-3.61-2.49l-7.9,3.55-1.85-4.11A9.61,9.61,0,0,1,104,32q.92-3.27,5.12-5.28l3.19-1.47q8.46-3.8,13.58,6.3l2,4.39L132,34.06l2,4.41-8.6,3.86-4-8.8q-2.65-5.94-7-4l-3.35,1.5q-3.9,1.75-2.26,5.41l2.87-1.29a8.39,8.39,0,0,1,5.78-.48q2.91.81,4.83,5.09a8.57,8.57,0,0,1-4.3,11.3Z"/><path class="cls-3" d="M145.05,36.69l-13.5,3.85-1.36-4.65,4.65-1.33-6.12-21.5,4.62-1.32,6.13,21.51L143.72,32Z"/><path class="cls-3" d="M141.31,6.43A2.33,2.33,0,0,1,139,5.82a3.89,3.89,0,0,1-1.15-1.91A3.1,3.1,0,0,1,140.16.09a2.54,2.54,0,0,1,2.41.53,3.68,3.68,0,0,1,1.16,1.89A3.21,3.21,0,0,1,143.28,5,3.12,3.12,0,0,1,141.31,6.43Zm-.18-1.71c.66-.15.86-.8.6-2-.18-.78-.56-1.12-1.16-1-.79.17-1.07.77-.84,1.77S140.41,4.88,141.13,4.72Z"/><path class="cls-3" d="M142.75,15.42a2.62,2.62,0,0,1-2.08-.41,2.75,2.75,0,0,1-1.2-1.76,2.78,2.78,0,1,1,5.05.94A2.63,2.63,0,0,1,142.75,15.42ZM158.19,34l-15.25,3.22-1-4.74L147,31.38l-2.87-13.62,4.73-1,2.88,13.62,5.44-1.15Zm-9.14-19.88a2.69,2.69,0,0,1-2.12-.4,2.75,2.75,0,0,1-1.2-1.76,2.79,2.79,0,0,1,2.16-3.32,2.8,2.8,0,0,1,3.28,2.17,2.68,2.68,0,0,1-.39,2.09A2.6,2.6,0,0,1,149.05,14.09Z"/><path class="cls-3" d="M156.55,11.39q-.83.11-1.05-.24a3,3,0,0,1-.34-1l1.07-.23,1.13-.24c.41-.08.78-.16,1.1-.24a2.49,2.49,0,0,0,.54-.18,2.53,2.53,0,0,1-.42-.61,2.93,2.93,0,0,1-.4-1.14,3,3,0,0,1,.46-2.09,2.25,2.25,0,0,1,1.62-1.07,2.66,2.66,0,0,1,1.86.43,2.25,2.25,0,0,1,1,1.68Q163.7,10.38,156.55,11.39Zm4.35-3.06q.78-.11.6-1.38c-.11-.83-.45-1.2-1-1.12s-.82.47-.72,1.17C159.93,8,160.3,8.41,160.9,8.33Z"/><path class="cls-3" d="M163.78,33.29l-7.9,1.11-.67-4.8,7-1-1.93-13.78,4.8-.68,2.06,14.69a3.93,3.93,0,0,1-3.36,4.44Zm-3.73,8a2.61,2.61,0,0,1-2-.55,2.76,2.76,0,0,1-1.08-1.84,2.72,2.72,0,0,1,.53-2.08,2.64,2.64,0,0,1,1.82-1.07,2.79,2.79,0,0,1,2.63,4.44A2.63,2.63,0,0,1,160.05,41.3Zm6.37-.89a2.65,2.65,0,0,1-2.08-.55A2.73,2.73,0,0,1,163.26,38a2.77,2.77,0,0,1,2.39-3.16,2.63,2.63,0,0,1,2,.53,2.82,2.82,0,0,1,.55,3.92A2.63,2.63,0,0,1,166.42,40.41Z"/><path class="cls-3" d="M177.67,32a3.05,3.05,0,0,1-2.21-.76,2.89,2.89,0,0,1-1-2.09,2.93,2.93,0,0,1,.78-2.22,3,3,0,0,1,4.3-.25,3,3,0,0,1,.26,4.3A3,3,0,0,1,177.67,32Z"/><path class="cls-3" d="M184.35,31.69a3,3,0,0,1-2.18-.84,3,3,0,0,1-.1-4.31,3.07,3.07,0,0,1,4.32-.1,2.94,2.94,0,0,1,1,2.15,2.89,2.89,0,0,1-.85,2.16A3,3,0,0,1,184.35,31.69Z"/><path class="cls-3" d="M200.06,11.37c-.5,0-.82-.17-.94-.41A2.42,2.42,0,0,1,199,9.85l.61,0a1.38,1.38,0,0,0,.65-1.25c0-.65-.23-1-.84-1a.83.83,0,0,0-.59.13,2.92,2.92,0,0,0-.6.66,4.64,4.64,0,0,1-.41-1.24,1.1,1.1,0,0,1,.53-.78A1.82,1.82,0,0,1,199.55,6a2.31,2.31,0,0,1,1.84.94A2.67,2.67,0,0,1,202,8.69a2.27,2.27,0,0,1-.09.52,3,3,0,0,1-.15.43,1.64,1.64,0,0,0-.07.2,2.38,2.38,0,0,1,.35,0l.45,0a2.75,2.75,0,0,1,.5,0,3,3,0,0,1-.34-.69,2.66,2.66,0,0,1-.18-1.2A2.82,2.82,0,0,1,203.33,6a2.42,2.42,0,0,1,3.61.15,2.52,2.52,0,0,1,.63,1.9c-.11,1.61-1.23,2.64-3.36,3.07A14.64,14.64,0,0,1,200.06,11.37Zm4.81-2.21c.58,0,.9-.29.94-1,.06-.9-.19-1.37-.77-1.41s-.89.28-.94,1S204.3,9,204.87,9.16Z"/><path class="cls-3" d="M193,44.15,190.54,44l.3-4.83,2.45.15a6.53,6.53,0,0,0,6.93-6.13l1.05-17.11,4.83.29-1,17.11A11.44,11.44,0,0,1,193,44.15Z"/><path class="cls-3" d="M215.1,43.76l-2.87-.48.78-4.7,2.88.48a6.26,6.26,0,0,0,4.4-.85,6.51,6.51,0,0,0,2.83-3.62l-.09.26-3.73-.63a29.69,29.69,0,0,1-3.21-.73,10,10,0,0,1-3.4-1.71,9.57,9.57,0,0,1-3.23-8c0-.33.07-.65.12-1a11,11,0,0,1,4.09-6.75,11.2,11.2,0,0,1,8.76-2.37l8.84,1.47-2.62,15.68,5,.84-.79,4.78-5.12-.86a10.17,10.17,0,0,1-4.29,6.19A10.85,10.85,0,0,1,215.1,43.76Zm8.81-13.68,1.83-11-4.1-.68a6.48,6.48,0,0,0-5,1.46,6.06,6.06,0,0,0-2.31,3.71A4.82,4.82,0,0,0,215.7,28a9.12,9.12,0,0,0,3.84,1.33Z"/><path class="cls-3" d="M243.37,39.89l-12.91-3.54,1.27-4.67,12.92,3.53Z"/><path class="cls-3" d="M254.4,43.74l-12.67-4.36,1.57-4.58L256,39.16Z"/><path class="cls-3" d="M267.07,16.31c-.51-.22-.77-.46-.78-.74a3,3,0,0,1,.2-1l1,.35,1.09.37c.4.14.75.25,1.07.34a2.62,2.62,0,0,0,.56.13,2.62,2.62,0,0,1-.06-.74,3,3,0,0,1,.25-1.19,2.94,2.94,0,0,1,1.45-1.57,2.28,2.28,0,0,1,1.94-.1,2.67,2.67,0,0,1,1.38,1.31,2.27,2.27,0,0,1,0,2Q273.75,19.07,267.07,16.31Zm5.29-.43c.49.2.9-.09,1.23-.89s.22-1.26-.29-1.47-.94,0-1.21.65C271.71,15.08,271.81,15.65,272.36,15.88Z"/><path class="cls-3" d="M259.65,46l-7.37-3.08,1.86-4.47,6.53,2.73L266,28.33l4.47,1.86-5.71,13.69A3.94,3.94,0,0,1,259.65,46Zm9.62-19.93a2.68,2.68,0,0,1-1.52-1.52,2.59,2.59,0,0,1,0-2.11,2.76,2.76,0,0,1,3.66-1.5,2.63,2.63,0,0,1,1.48,1.5,2.7,2.7,0,0,1,0,2.14,2.77,2.77,0,0,1-3.61,1.49Z"/><path class="cls-4" d="M339.61,327.2l-8.42-6.29A176.49,176.49,0,0,0,366.48,214.5c0-63.11-32.34-120.2-86.52-152.71l5.41-9A188.36,188.36,0,0,1,377,214.5,186.9,186.9,0,0,1,339.61,327.2Z"/><path class="cls-4" d="M31.4,318.7A188.55,188.55,0,0,1,84.53,57.25L90.34,66A178,178,0,0,0,40.15,312.88Z"/></svg>