<svg id="Layer_1" data-name="Layer 1" xmlns="http://www.w3.org/2000/svg" viewBox="0 0 376.99 413.27"><defs><style>.cls-1,.cls-3{fill:#ad9f4e;}.cls-1,.cls-2{fill-rule:evenodd;}.cls-2,.cls-4{fill:#486837;}</style></defs><path class="cls-1" d="M215.33,138c-1.33-1.72-3.94-3.58-4.19-3.95l1.22-3.46c.18-.47,1.34-3,1.34-3.34s-.07-.21-.11-.67c-1.41-.33-2.18.27-2.92,1.88-.4.9-.93,1.79-1.31,2.7-.21.52-.39.87-.64,1.37a11.8,11.8,0,0,0-.58,1.42,63.25,63.25,0,0,0-3.61,12.35,16.85,16.85,0,0,0-.53,3.48c0,2.18,0,4.27,2.07,5.52a4.91,4.91,0,0,0,3,.5,9.2,9.2,0,0,0,6.6-3.43,6.37,6.37,0,0,0,1.55-3.47C218.07,144.38,218.2,141.7,215.33,138Zm.28,8.23-.68.76c-1.64,1.26-3.89,2.79-6.14,2.79-1.24,0-2.06-.07-2.3-1.72a10.4,10.4,0,0,1,.31-2.95,16.64,16.64,0,0,1,1.26-3.65,6.94,6.94,0,0,0,.51-1.16C209.25,140.49,216.3,144.66,215.61,146.24Z"/><path class="cls-1" d="M256.65,196.87c-1.83,0-2.72,1.18-3.71,2.73a13.64,13.64,0,0,0-1.7,4.27c-.58,2.34-1.23,4.83-1.71,7.26-.07.36-.14.83-.21,1.28a3.79,3.79,0,0,1-.12.62c-.11.33-.17.26-.2.64h-.19c-.68-2.93-1.14-6.33-2.73-8.94a23.54,23.54,0,0,0-1.33-2.21c-.12-.16-.2-.3-.31-.43a9.17,9.17,0,0,0-2.32-2.08c-.62-.34-2.48-1.25-3.16-.38s-2.47,3.59-2.47,4.62c0,.86,2.66,3.45,3.92,3.45,1.79,0,.66-.74,2.05-.74.57,0,1.65,2.34,1.94,2.92a47.53,47.53,0,0,1,3.14,9s-.09,3.41,1.44,1.14c1-1.42,1.64-4.33,2-6,.17-.88.35-1.87.52-2.73a34.25,34.25,0,0,1,2.21-7.52c1-1.78,2-2.09,3.54-.52.58.61.86,1.34,1.56,1.34s1.4-2.51,1.4-3.55S258.2,196.87,256.65,196.87Z"/><path class="cls-1" d="M264,228.23c-3.75,1.87-7.82,4.19-11.58,6.06l-8.13,4.39c-.61.35-1,.47-1.27,1.23a17.49,17.49,0,0,0-.39,4.72l26.41-13.86,8.49-4.16c.23-1.77.43-3.6.61-5.37Z"/><path class="cls-1" d="M170.65,125.94c-.3-.17-.52-.32-.85-.5,0-.32,2.09-6.49.58-8.85-2.07-3.22-6.33.69-7.81,2.64A7,7,0,0,0,161.1,124c.17,1.74,1.84,3.12,3.21,4,.21.13.3.21.52.34.38.22.67.36,1,.56a11.16,11.16,0,0,1-1,1.43c-.36.48-.67.88-1.06,1.32-.23.26-.31.39-.56.64a7.83,7.83,0,0,0-.55.64l-10.05,9.19c-1,.79-6.09,4.85-7,5.1l1.82-2c.13-.17.24-.23.37-.39.27-.32.45-.58.73-.9s.43-.56.68-.85a9.27,9.27,0,0,0,.7-.92c2.31-3.19,4.65-6.9,4.65-11a7.1,7.1,0,0,0-.44-3.06c-.92-2.2-2.6-3-5-3a3.87,3.87,0,0,0-1.67.29A10.74,10.74,0,0,0,143.1,129a7.21,7.21,0,0,0-.67,8c1.16,1.94,1.82,2,2.85,3.29,1.57,2,1.5,2.27.38,3.64-.33.42-.58.78-.93,1.19l-2.89,3.41c-.18.2-.34.32-.51.53a4.61,4.61,0,0,1-.51.58,4.11,4.11,0,0,0-.48.55c-.18.22-.32.35-.51.6-.72.9-.86,1-.69,1.77,1.79,0,3-1,4.62-1.76,2.39-1.19,3.86-2.12,6.09-3.45l3.8-2.59c.33-.23.6-.49.9-.72s.59-.44.91-.7l5.07-4.47c.16-.18.18-.24.34-.43l2-2a52.31,52.31,0,0,0,3.53-4.57c.24-.35.42-.59.66-1s.43-.63.64-1a10.63,10.63,0,0,1,2.28,1.56c.24.23.53.4.62.75.52-.14,2.22-3.38,2.22-4.09C172.78,127.2,171.37,126.37,170.65,125.94Zm-26.92,6.65c0-1,.27-1.45,1.35-2.31a4.06,4.06,0,0,1,3.17-.93,4.87,4.87,0,0,1,2.7.88c2.87,2.44.13,6.79-1.6,9.09l-1.49,1.91c-.27.34-.59.66-.8,1l-.11-.07.23-.58a5.29,5.29,0,0,0-.12-4.29C146.37,135.73,143.73,133.81,143.73,132.59Zm24.11-8.17c-.75-.4-4.85-2.24-3.52-3.61a3.6,3.6,0,0,1,1.22-.74C168.56,118.59,168.4,123.24,167.84,124.42Z"/><path class="cls-2" d="M174.16,90.11a12.46,12.46,0,0,0,1.84,1c.57.29,1.68.54,2,1-.47.12-.17,0-.55.32l-3.67,3.25a3.7,3.7,0,0,0-1.26,2.63,10.06,10.06,0,0,0-.29,3.31c.75-.17,6.13-4,7.12-4.69L190,89.89c1.21-.8,2.38-1.54,3.57-2.34,1.59-1,2-1.07,2.83-3.08.38-1,1.28-3.51.78-4.56-1.54.13-5,2.55-6.46,3.49-1.67,1.07-4.77,3.22-6.83,2.89s-5.83-2.1-6.23-3.74c-.27-1.14,1.16-2.24,1.93-2.78,1.84-1.3,4.47-2.67,6.3-.39.55.68.6,1.34,1.34,1.83.59-.39.55-.53.86-1.15.95-1.86,2.42-5.35,1.13-7.48-1.06-1.76-1.72-1.9-4-1.9-2.66,0-7.06,4.21-8.54,5.89a30.65,30.65,0,0,0-3.14,4.06,10.35,10.35,0,0,0-1.73,5.63C171.82,88.09,172.8,89.14,174.16,90.11Z"/><path class="cls-2" d="M202.33,184.72l2.79,2c.5.34,1,.69,1.44,1,1.75,1.33,1.63,1.33,2.92-.82.41-.69.7-1.36,1.12-2.06a32,32,0,0,0,2.06-4.4,25.16,25.16,0,0,1,2.85,1.74c1.27.8,7.88,5.66,8.19,5.66.81,0,1.23-1,1.92-2.2,1.31-2.19,3.72-6.05,3.72-8.6,0-.84-10.33-8-11.51-8-.63,0-1.17,1.27-1.41,1.76l-2.06,4.28a18.29,18.29,0,0,0-1,2.18c-.6,0-.83-.55-1.24-.88l-3.88-2.81a53.83,53.83,0,0,0-5.45-3.48c-1.29-.64-1.4,0-2.19,1.57l-1.49,3c-.52,1-.94,2-1.45,3-.71,1.43-1.21,2-1.21,3.25C196.84,181.05,201.68,184.26,202.33,184.72Z"/><path class="cls-2" d="M140.17,186.74c.5.34,1,.69,1.43,1,1.75,1.33,1.63,1.33,2.93-.82.41-.69.69-1.36,1.11-2.06a32.1,32.1,0,0,0,2.07-4.4,26,26,0,0,1,2.84,1.74c1.27.8,7.88,5.66,8.2,5.66.8,0,1.23-1,1.91-2.2,1.32-2.19,3.72-6.05,3.72-8.6,0-.84-10.33-8-11.5-8-.64,0-1.17,1.27-1.42,1.76l-2.06,4.28a20,20,0,0,0-1,2.18c-.6,0-.83-.55-1.24-.88l-3.88-2.81a53.83,53.83,0,0,0-5.45-3.48c-1.29-.64-1.39,0-2.19,1.57l-1.49,3c-.52,1-.93,2-1.45,3-.71,1.43-1.21,2-1.21,3.25.39.09,5.22,3.3,5.87,3.76Z"/><path class="cls-2" d="M191.17,279.94l-7.62,3.54h0c.25,18,.35,34,.2,45.81-.17,13-.49,28.71-.49,29,5.94-11.32,7.57-25.72,8.21-35.71.3-4.62.31-8.29.28-10.29C191.62,303.81,191.42,292.65,191.17,279.94Z"/><path class="cls-2" d="M184.09,104.49a2.65,2.65,0,0,0-1-1.4c-1.41.82-5.2,9.8-5.25,11,0,.9.67,2,.86,2.83,1.05,4.52.83,6.78,1.07,10,.85,28.7,2.4,82,3.32,129.3l7.53-3.31c-1-45.08-2.31-98.32-3.5-125.18,1,.11,3.17,3.06,5.5,4.48C194.84,132.27,185.81,108.36,184.09,104.49Z"/><path class="cls-2" d="M270.3,263.86a33.37,33.37,0,0,0-3.49-9.67,16.1,16.1,0,0,0-4.18-4.89,8.44,8.44,0,0,0-5.26-1.52,10.18,10.18,0,0,0-6.19,2.49A25,25,0,0,0,246,256l-1.63,2.53a31.76,31.76,0,0,0-1.62,3.32c-.89,2-.4.51-1.44,1.91-1.23,1.64-3.33,9.91-4.64,13a15.14,15.14,0,0,1-3.3,5l-1.78,1.64a30.84,30.84,0,0,1-11.85,5.88l-.47.11c-.55.12-1.58.35-2.93.61-14.22,2-14-14.08-13.15-23.21,3.47-1.53,6.85-3.22,10.32-4.77l2.94-1.42,1.75-.84,8.55-4.74c2.21-1.51,1.57-1.32,3-2.76a11.07,11.07,0,0,0,1.21-1.54,26.59,26.59,0,0,0,3.75-7.61c2.08-6.54,1.24-15.74-.78-22a33.77,33.77,0,0,0-4.71-9.34c-.27-.38-.47-.62-.76-1a29.83,29.83,0,0,0-8.21-7.66,16.18,16.18,0,0,0-9.32-2.3,8.56,8.56,0,0,0-4.61,2,19.12,19.12,0,0,0-3.18,3.24c-3.25,4.22-6,9.73-5.86,15.23a17.3,17.3,0,0,0,.68,4.43,9.67,9.67,0,0,0,1.08,2.36,10.18,10.18,0,0,0,3.4,3.32c.37.2.71.33,1.11.54,3.05,1.67,11.8.29,15.9.71a23.69,23.69,0,0,1,6.71,1.73c2.36.91,5.86,3,5.92,5.76,0,1.5-7.46,4.95-8.9,5.71-3.2,1.65-6.72,3.16-10,4.55-.46.19-.89.39-1.32.59s-.81.33-1.25.54l-20.26,8.91c-3.74,1.71-7.48,3.38-11.11,5.26l-3.62,1.87a70.16,70.16,0,0,0-8.94,5.55,68.6,68.6,0,0,0-9.14,7.93l-1.31,1.46c-2.09,2.67-4.4,5.15-6.47,7.84a48.08,48.08,0,0,1-7.83,8.3c-.68.55-1.32,1-2.06,1.51a21.64,21.64,0,0,1-3.49,2c-.5.22-.74.38-1.24.56a18.06,18.06,0,0,1-4.39,1.15c-.69,0-1.08.14-1.67.16a10.32,10.32,0,0,1-4.56-.81,9.31,9.31,0,0,1-4.47-4.46,18.43,18.43,0,0,1-1.26-9.18,48.94,48.94,0,0,1,2.55-11.49l2.17-6.38.51-1.47c.33-.92.6-1.78.89-2.69.21-.66,3.53-7.87,5.44-12.1A31.14,31.14,0,0,0,130,261c.05.69.07,1.28.11,1.86l.59,3.61c.08.23.17.45.26.69a4.15,4.15,0,0,0,.63,1.4,7,7,0,0,0,3.13,3.05c4.1,1.86,9.43-.05,13.1-1.75a42.12,42.12,0,0,0,7-4,31.46,31.46,0,0,0,2.69-2,19.08,19.08,0,0,0,5.78-8.18c.28-.8.54-1.63.76-2.38a25.34,25.34,0,0,0,.86-10,24.09,24.09,0,0,0-.94-5.3,24.43,24.43,0,0,0-2.67-5.78c-.26-.46-.53-.81-.82-1.23s-.54-.8-.88-1.27c-.68-.95-4.65-6.14-5.87-6.89l8.4-11.81c1.14-1.78,2.35-3.48,3.41-5.32,2.25-3.9,4.6-8,4.6-12.69a18.9,18.9,0,0,0-.16-3.48,6.07,6.07,0,0,1-.19-.82c-.59,0-.6.2-.89.62-.47.69-2.54,5.06-3.2,6.28a68,68,0,0,1-4.29,6.71l-6.45,9.33c-1.56,2.16-3,4.33-4.71,6.41a3.17,3.17,0,0,0-.68.92,8.81,8.81,0,0,1-1.93-1.2,55.49,55.49,0,0,1-9-8.19c-.64-.7-2-1.88-2.06-2.72,1.66-.74,5.43.12,7-.66-.1-1.15-6.92-5.15-8.14-5.9s-7.91-5-9.11-5-2.26,8.24-2.26,9.57c0,1.82,0,2.57,1.24,4a21.09,21.09,0,0,0,1.94,1.84c.25.23.42.37.66.6a53.27,53.27,0,0,1,4.06,4.94c.43.51.75,1,1.16,1.46l7.15,8.13c.67.74,2,1.77,2.58,2.56-1,1.68-2.17,3.3-3.23,4.93-.56.86-1,1.63-1.57,2.51l-1.54,2.54a52.82,52.82,0,0,0-5,11.16l-6.2,11.32c-.3.54-.53,1-.83,1.61l-2.13,4.68-1.14,2.52a74.8,74.8,0,0,0-5.06,15.76,39,39,0,0,0-.76,9.2A22,22,0,0,0,118.31,305c.32.56.7,1.06,1,1.6a18,18,0,0,0,8.9,7,15.53,15.53,0,0,0,8.34.09l2.16-.77a21.3,21.3,0,0,0,4.51-2.74,41,41,0,0,0,4.49-4.15l6-6.9c.73-.73,1.29-1.55,2-2.28.26-.26.47-.46.71-.72l2-2.23c.62-.79,5.07-5.26,5.68-5.81L168,284.7c.32-.26.44-.4.79-.65.57-.44,1-.75,1.61-1.17a89.39,89.39,0,0,1,9.28-5.24c3.21-1.66,6.53-3.09,9.79-4.67l3-1.38c1.24-.55,2.44-1.11,3.64-1.66s2.26-1,3.4-1.54l.13-.05c-.20,6.21-.33,16.38,2.31,24.18a15.55,15.55,0,0,0,2,4.81,12.5,12.5,0,0,0,1.9,2.44c.25.23.51.41.78.62l.12.08c2.94,2.64,7,3.78,12.76,2.37h0a19.86,19.86,0,0,0,7.41-3.23,36,36,0,0,0,4-3.51c.25-.26.39-.51.64-.77a7.77,7.77,0,0,0,.71-.81l2.56-3.38,2.62-4.59a60.11,60.11,0,0,0,3.08-8.25c.13-.45.2-.7.35-1.09.85.43,1.7.88,2.55,1.36s1.76.86,2.69,1.31l4.14,1.71,4.48,1.26a32,32,0,0,0,11.68.56c3.06-.37,4.19-7.5,4.44-10C271.2,269.84,270.73,267.43,270.3,263.86Zm-53.8-43.68c-.57,0-.62-.1-1.23-.09a6.47,6.47,0,0,1-1.17,0c-.72-.09-1.68,0-2.34-.06a10.65,10.65,0,0,1-4.06-.87,3.45,3.45,0,0,1-1.44-1.09,3.16,3.16,0,0,1-.6-1.85,2.29,2.29,0,0,1,.43-1.3,2.37,2.37,0,0,1,.91-.76c2.09-1.15,5.73-.63,7.67.34l2.07,1.23a19.54,19.54,0,0,1,4.47,4.69C219.64,220.42,218.09,220.18,216.5,220.18Zm-76.62,22.54a85.32,85.32,0,0,1,6.63-9.15c.21-.24.34-.32.57-.59s.18-.29.52-.5a72,72,0,0,1,6.15,5.43c.2.22.2.26.43.49s.5.57.83.88a47.18,47.18,0,0,1,4,4.9c.35.55,1.94,2.73,1.94,3.27,0,1.69-4.55,4.83-6,5.86a24,24,0,0,1-2.36,1.45,38.08,38.08,0,0,1-5.25,2.52,22.89,22.89,0,0,1-6.22,1.61c-1.88,0-3.83.08-5.43-.81s-1.71-2-1.71-3.37C133.92,252.17,138.58,244.72,139.88,242.72Zm123,27.17a.73.73,0,0,1-.56.64c-2,.25-6.67-1.06-8.47-1.67l-6.91-3a2.52,2.52,0,0,1,.6-1.77c1.37-1.88,3.9-2.51,6.19-2.79,3.34-.41,6.84,3,8.4,5.76a6.47,6.47,0,0,1,.66,1.91A2.07,2.07,0,0,1,262.9,269.89Z"/></svg>